<svg id="Layer_1" data-name="Layer 1" xmlns="http://www.w3.org/2000/svg" viewBox="0 0 526.38 70.4"><defs><style>.cls-1{fill:#262d38;}.cls-2{fill:#ff645c;}</style></defs><title>Journity-logo-2-color-navy</title><path class="cls-1" d="M93,69.92a34.91,34.91,0,0,1-8.27-1,5.89,5.89,0,1,1,2.79-11.44,23,23,0,1,0-17-17.58A5.89,5.89,0,1,1,59,42.32,34.78,34.78,0,1,1,93,69.92Z"/><path class="cls-1" d="M2.51,62.28a6.25,6.25,0,0,1-2-4.46A5.67,5.67,0,0,1,6.2,52.09a5.39,5.39,0,0,1,3.69,1.36c3.3,3.4,6.5,5.24,11.06,5.24,6.6,0,11-4.27,11-13.39v-39a6,6,0,0,1,12,0v39.4c0,8.06-2.43,14.07-6.41,18.05s-9.71,6-16.5,6A25.32,25.32,0,0,1,2.51,62.28Z"/><path class="cls-1" d="M141.79,40V6.28a6,6,0,0,1,11.94,0V39.48c0,12.62,6.5,19.31,17.18,19.31S188,52.48,188,40V22.73a6,6,0,0,1,11.94,0V39.38c0,20.28-11.45,30.47-29.21,30.47S141.79,59.66,141.79,40Z"/><path class="cls-1" d="M231.27,44.62V63.95a6.06,6.06,0,0,1-6,6.08,5.9,5.9,0,0,1-5.92-5.92V6.38a6,6,0,0,1,6-6h24.26c8.54,0,15.24,2.52,19.6,6.79,3.59,3.69,5.63,9.22,5.63,15.14v.19c0,10.87-6.31,17-15.43,19.8l13.67,17.56A6.92,6.92,0,0,1,275,64.41a5.63,5.63,0,0,1-5.73,5.53,6.82,6.82,0,0,1-5.82-3.11L248.89,47.91a8.78,8.78,0,0,1-1.65-7.37l.13-.55a8.9,8.9,0,0,1,6.5-6.57c5.52-1.45,8.84-5.35,8.84-10.74v-.19c0-7.28-5.24-11.26-14.07-11.26H231.27V44.62Z"/><path class="cls-1" d="M292,6.48a6,6,0,0,1,6-6h1.26c2.91,0,4.56,1.46,6.21,3.49l34,44.84V6.19a5.87,5.87,0,0,1,11.74,0V64.13a5.8,5.8,0,0,1-5.82,5.92h-.49c-2.81,0-4.56-1.46-6.21-3.59L303.74,20.36v27.3a5.87,5.87,0,0,1-11.74,0Z"/><path class="cls-1" d="M371.85,6.28a6,6,0,0,1,11.94,0V64.13a6,6,0,0,1-11.94,0Z"/><path class="cls-1" d="M489,42.39,465.56,10.26a7.38,7.38,0,0,1-1.36-4.17,5.81,5.81,0,0,1,6-5.73c2.62,0,4.37,1.46,5.82,3.59L495,31.23,514.19,3.86c1.46-2.14,3.2-3.59,5.73-3.59a5.66,5.66,0,0,1,5.82,5.82,7.24,7.24,0,0,1-1.65,4.27L500.89,42.1V64A6,6,0,0,1,489,64Z"/><circle class="cls-2" cx="193.95" cy="6.33" r="5.97"/><circle class="cls-2" cx="72.27" cy="55.16" r="5.86"/><circle class="cls-2" cx="297.97" cy="63.95" r="5.97"/><circle class="cls-2" cx="444.79" cy="6.24" r="5.97"/><path class="cls-1" d="M433.81,6.24A5.75,5.75,0,0,0,428.07.49H405.28a5.53,5.53,0,1,0,0,11.06h16.5V64a6,6,0,0,0,12,0V11.56h0V6.23Z"/></svg>