<svg id="Layer_1" data-name="Layer 1" xmlns="http://www.w3.org/2000/svg" viewBox="0 0 256 256"><defs><style>.cls-1{fill:#f16147;}.cls-2{fill:#fff;}</style></defs><title>icon</title><rect class="cls-1" width="256" height="256"/><path class="cls-2" d="M67.49,197.8a16,16,0,0,1-5.23-11.45,14.55,14.55,0,0,1,14.68-14.68,13.85,13.85,0,0,1,9.46,3.48c8.46,8.71,16.67,13.44,28.37,13.44,16.92,0,28.11-11,28.11-34.34v-100a15.43,15.43,0,0,1,30.86,0v101c0,20.65-6.22,36.08-16.42,46.28S132.43,217,115,217C93.86,217,78.43,208.75,67.49,197.8Z"/></svg>